<svg id="Layer_1" enable-background="new 0 0 512 512" height="512" viewBox="0 0 512 512" width="512" xmlns="http://www.w3.org/2000/svg"><g><g><path d="m288 16h-32c-44.112 0-80 35.888-80 80v26.068c-20.709 24.493-32 55.195-32 87.638v110.294c0 8.837 7.164 16 16 16s16-7.163 16-16v-110.294c0-24.231 8.233-47.197 23.373-65.706h24.627c44.112 0 80-35.888 80-80v-32c0-8.837-7.163-16-16-16z" fill="#4b9641"/><g><g><path d="m320 496c-8.837 0-16-7.163-16-16s7.163-16 16-16c79.401 0 144-64.599 144-144s-64.599-144-144-144c-8.837 0-16-7.163-16-16s7.163-16 16-16c97.047 0 176 78.953 176 176s-78.953 176-176 176z" fill="#4b9641"/></g></g><path d="m320 464c-79.402 0-144-64.599-144-144v-30.294c0-32.442-11.291-63.145-32-87.638v-26.068c0-44.112-35.888-80-80-80h-32c-8.836 0-16 7.163-16 16v32c0 44.112 35.888 80 80 80h24.627c15.14 18.509 23.373 41.475 23.373 65.706v30.294c0 97.047 78.953 176 176 176 8.837 0 16-7.163 16-16s-7.163-16-16-16z" fill="#91c83c"/></g><g><path d="m406.727 243.669c-1.473-2.287-4.007-3.669-6.727-3.669h-52.287l12.255-135.278c.202-2.238-.546-4.458-2.062-6.117s-3.659-2.605-5.906-2.605h-32c-3.133 0-5.977 1.828-7.277 4.678l-80.341 176c-1.13 2.477-.924 5.358.548 7.648 1.472 2.289 4.007 3.674 6.729 3.674h52.715l-12.341 135.273c-.204 2.238.543 4.46 2.059 6.12s3.66 2.607 5.908 2.607h32c3.137 0 5.984-1.834 7.283-4.689l80-176c1.125-2.477.916-5.355-.556-7.642z" fill="#f06423"/><path d="m374.727 243.669c-1.473-2.287-4.007-3.669-6.727-3.669h-52.287l12.255-135.278c.352-3.883-2.147-7.454-5.917-8.454-3.764-.999-7.709.863-9.328 4.41l-80.341 176c-1.13 2.477-.924 5.358.548 7.648 1.472 2.289 4.007 3.674 6.729 3.674h52.715l-12.341 135.273c-.354 3.887 2.146 7.461 5.919 8.46.683.181 1.371.268 2.05.268 3.073 0 5.958-1.78 7.281-4.69l80-176c1.125-2.477.916-5.355-.556-7.642z" fill="#faa019"/></g></g></svg>